<?xml version="1.0" encoding="UTF-8" standalone="no" ?>
<!DOCTYPE svg PUBLIC "-//W3C//DTD SVG 1.1//EN" "http://www.w3.org/Graphics/SVG/1.1/DTD/svg11.dtd">
<svg xmlns="http://www.w3.org/2000/svg" xmlns:xlink="http://www.w3.org/1999/xlink" version="1.1" width="960" height="200" viewBox="0 0 960 200" xml:space="preserve">
<desc>Created with Fabric.js 5.2.4</desc>
<defs>
</defs>
<g transform="matrix(1 0 0 1 480 100)" id="df941431-9006-4172-b368-f0d35ac51355"  >
<rect style="stroke: none; stroke-width: 1; stroke-dasharray: none; stroke-linecap: butt; stroke-dashoffset: 0; stroke-linejoin: miter; stroke-miterlimit: 4; fill: rgb(255,255,255); fill-rule: nonzero; opacity: 1; visibility: hidden;" vector-effect="non-scaling-stroke"  x="-480" y="-100" rx="0" ry="0" width="960" height="200" />
</g>
<g transform="matrix(Infinity NaN NaN Infinity 0 0)" id="069a3329-d80e-4418-9a98-009efdb77d1e"  >
</g>
<g transform="matrix(1 0 0 1 480 49.99)"  >
<g style="" vector-effect="non-scaling-stroke"   >
		<g transform="matrix(1 0 0 1 0 -0.5)"  >
<rect style="stroke: none; stroke-width: 1; stroke-dasharray: none; stroke-linecap: butt; stroke-dashoffset: 0; stroke-linejoin: miter; stroke-miterlimit: 4; fill: rgb(254,250,241); fill-rule: nonzero; opacity: 1;" vector-effect="non-scaling-stroke"  x="-480" y="-150" rx="0" ry="0" width="960" height="300" />
</g>
		<g transform="matrix(1 0 0 1 0 32.24)"  >
<path style="stroke: none; stroke-width: 1; stroke-dasharray: none; stroke-linecap: butt; stroke-dashoffset: 0; stroke-linejoin: miter; stroke-miterlimit: 4; fill: rgb(254,250,241); fill-rule: nonzero; opacity: 1;" vector-effect="non-scaling-stroke"  transform=" translate(-480, -182.74)" d="M 0 75 L 22.8 71.2 C 45.7 67.3 91.3 59.7 137 68.7 C 182.7 77.7 228.3 103.3 274 110.2 C 319.7 117 365.3 105 411.2 99 C 457 93 503 93 548.8 90 C 594.7 87 640.3 81 686 89.8 C 731.7 98.7 777.3 122.3 823 133.7 C 868.7 145 914.3 144 937.2 143.5 L 960 143 L 960 301 L 937.2 301 C 914.3 301 868.7 301 823 301 C 777.3 301 731.7 301 686 301 C 640.3 301 594.7 301 548.8 301 C 503 301 457 301 411.2 301 C 365.3 301 319.7 301 274 301 C 228.3 301 182.7 301 137 301 C 91.3 301 45.7 301 22.8 301 L 0 301 Z" stroke-linecap="round" />
</g>
		<g transform="matrix(1 0 0 1 0 58.22)"  >
<path style="stroke: none; stroke-width: 1; stroke-dasharray: none; stroke-linecap: butt; stroke-dashoffset: 0; stroke-linejoin: miter; stroke-miterlimit: 4; fill: rgb(245,205,183); fill-rule: nonzero; opacity: 1;" vector-effect="non-scaling-stroke"  transform=" translate(-480, -208.72)" d="M 0 129 L 22.8 133.2 C 45.7 137.3 91.3 145.7 137 141.7 C 182.7 137.7 228.3 121.3 274 118.2 C 319.7 115 365.3 125 411.2 126.2 C 457 127.3 503 119.7 548.8 117.3 C 594.7 115 640.3 118 686 118 C 731.7 118 777.3 115 823 120.7 C 868.7 126.3 914.3 140.7 937.2 147.8 L 960 155 L 960 301 L 937.2 301 C 914.3 301 868.7 301 823 301 C 777.3 301 731.7 301 686 301 C 640.3 301 594.7 301 548.8 301 C 503 301 457 301 411.2 301 C 365.3 301 319.7 301 274 301 C 228.3 301 182.7 301 137 301 C 91.3 301 45.7 301 22.8 301 L 0 301 Z" stroke-linecap="round" />
</g>
		<g transform="matrix(1 0 0 1 0 75.11)"  >
<path style="stroke: none; stroke-width: 1; stroke-dasharray: none; stroke-linecap: butt; stroke-dashoffset: 0; stroke-linejoin: miter; stroke-miterlimit: 4; fill: rgb(239,154,157); fill-rule: nonzero; opacity: 1;" vector-effect="non-scaling-stroke"  transform=" translate(-480, -225.61)" d="M 0 163 L 22.8 171 C 45.7 179 91.3 195 137 191 C 182.7 187 228.3 163 274 154.3 C 319.7 145.7 365.3 152.3 411.2 159.2 C 457 166 503 173 548.8 178.2 C 594.7 183.3 640.3 186.7 686 181.3 C 731.7 176 777.3 162 823 165.5 C 868.7 169 914.3 190 937.2 200.5 L 960 211 L 960 301 L 937.2 301 C 914.3 301 868.7 301 823 301 C 777.3 301 731.7 301 686 301 C 640.3 301 594.7 301 548.8 301 C 503 301 457 301 411.2 301 C 365.3 301 319.7 301 274 301 C 228.3 301 182.7 301 137 301 C 91.3 301 45.7 301 22.8 301 L 0 301 Z" stroke-linecap="round" />
</g>
		<g transform="matrix(1 0 0 1 0 96.12)"  >
<path style="stroke: none; stroke-width: 1; stroke-dasharray: none; stroke-linecap: butt; stroke-dashoffset: 0; stroke-linejoin: miter; stroke-miterlimit: 4; fill: rgb(209,108,167); fill-rule: nonzero; opacity: 1;" vector-effect="non-scaling-stroke"  transform=" translate(-480, -246.62)" d="M 0 221 L 22.8 223.7 C 45.7 226.3 91.3 231.7 137 233 C 182.7 234.3 228.3 231.7 274 223.2 C 319.7 214.7 365.3 200.3 411.2 201.8 C 457 203.3 503 220.7 548.8 226 C 594.7 231.3 640.3 224.7 686 215.7 C 731.7 206.7 777.3 195.3 823 192.8 C 868.7 190.3 914.3 196.7 937.2 199.8 L 960 203 L 960 301 L 937.2 301 C 914.3 301 868.7 301 823 301 C 777.3 301 731.7 301 686 301 C 640.3 301 594.7 301 548.8 301 C 503 301 457 301 411.2 301 C 365.3 301 319.7 301 274 301 C 228.3 301 182.7 301 137 301 C 91.3 301 45.7 301 22.8 301 L 0 301 Z" stroke-linecap="round" />
</g>
		<g transform="matrix(1 0 0 1 0 113.5)"  >
<path style="stroke: none; stroke-width: 1; stroke-dasharray: none; stroke-linecap: butt; stroke-dashoffset: 0; stroke-linejoin: miter; stroke-miterlimit: 4; fill: rgb(126,87,194); fill-rule: nonzero; opacity: 1;" vector-effect="non-scaling-stroke"  transform=" translate(-480, -264)" d="M 0 254 L 22.8 250.5 C 45.7 247 91.3 240 137 236.7 C 182.7 233.3 228.3 233.7 274 233 C 319.7 232.3 365.3 230.7 411.2 236.5 C 457 242.3 503 255.7 548.8 261.5 C 594.7 267.3 640.3 265.7 686 261.5 C 731.7 257.3 777.3 250.7 823 244.5 C 868.7 238.3 914.3 232.7 937.2 229.8 L 960 227 L 960 301 L 937.2 301 C 914.3 301 868.7 301 823 301 C 777.3 301 731.7 301 686 301 C 640.3 301 594.7 301 548.8 301 C 503 301 457 301 411.2 301 C 365.3 301 319.7 301 274 301 C 228.3 301 182.7 301 137 301 C 91.3 301 45.7 301 22.8 301 L 0 301 Z" stroke-linecap="round" />
</g>
</g>
</g>
</svg>